<svg id="Capa_1" data-name="Capa 1" xmlns="http://www.w3.org/2000/svg" viewBox="0 0 1532 685"><defs><style>.cls-1{font-size:242.16px;stroke:#000;stroke-miterlimit:10;stroke-width:0.25px;font-family:Racesky;}.cls-1,.cls-5{fill:#fff;}.cls-2{font-size:55.68px;fill:#dd5e2b;font-family:CocogoosePro-Italic, Cocogoose Pro;}.cls-2,.cls-5{font-style:italic;}.cls-3{letter-spacing:-0.03em;}.cls-4{letter-spacing:-0.02em;}.cls-5{font-size:47px;font-family:CocogoosePro-LightItalic, Cocogoose Pro;font-weight:300;}.cls-6{letter-spacing:0.03em;}.cls-7{letter-spacing:-0.04em;}.cls-8{letter-spacing:-0.01em;}.cls-9{letter-spacing:-0.03em;}.cls-10{letter-spacing:0.04em;}.cls-11{letter-spacing:-0.03em;}.cls-12{letter-spacing:-0.03em;}.cls-13{letter-spacing:-0.06em;}.cls-14{letter-spacing:-0.01em;}.cls-15{letter-spacing:-0.02em;}.cls-16{letter-spacing:-0.06em;}.cls-17{letter-spacing:-0.02em;}.cls-18{letter-spacing:0.33em;}.cls-19{letter-spacing:-0.04em;}.cls-20{letter-spacing:0.05em;}.cls-21{letter-spacing:0.05em;}</style></defs><text class="cls-1" transform="translate(60.08 217.54)">Jayce Valdez</text><text class="cls-2" transform="translate(410.98 298.88)">In<tspan class="cls-3" x="60.03" y="0">t</tspan><tspan x="82.48" y="0">eligencia artificial y bloc</tspan><tspan class="cls-4" x="868.23" y="0">k</tspan><tspan x="906.66" y="0">chain</tspan></text><text class="cls-5" transform="translate(36.19 369.05)">En<tspan class="cls-6" x="61.05" y="0"> </tspan><tspan x="77.24" y="0">AiGenesis,</tspan><tspan class="cls-6" x="333.83" y="0"> </tspan><tspan x="350.02" y="0">una</tspan><tspan class="cls-6" x="448.08" y="0"> </tspan><tspan x="464.27" y="0">emp</tspan><tspan class="cls-7" x="587.18" y="0">r</tspan><tspan x="609.77" y="0">esa</tspan><tspan class="cls-6" x="705.9" y="0"> </tspan><tspan x="722.09" y="0">líder</tspan><tspan class="cls-6" x="842.38" y="0"> </tspan><tspan x="858.57" y="0">en</tspan><tspan class="cls-6" x="925.01" y="0"> </tspan><tspan x="941.2" y="0">cri</tspan><tspan class="cls-7" x="1007.24" y="0">p</tspan><tspan class="cls-8" x="1042.15" y="0">t</tspan><tspan x="1056.89" y="0">omonedas,</tspan><tspan class="cls-6" x="1354.53" y="0"> </tspan><tspan x="1370.72" y="0">me </tspan><tspan x="0" y="56.4">especiali</tspan><tspan class="cls-9" x="234.29" y="56.4">z</tspan><tspan x="262.54" y="56.4">o</tspan><tspan class="cls-10" x="298.2" y="56.4"> </tspan><tspan x="315" y="56.4">en</tspan><tspan class="cls-10" x="381.44" y="56.4"> </tspan><tspan x="398.24" y="56.4">el</tspan><tspan class="cls-10" x="445.92" y="56.4"> </tspan><tspan x="462.72" y="56.4">desar</tspan><tspan class="cls-7" x="619.34" y="56.4">r</tspan><tspan x="641.93" y="56.4">ollo</tspan><tspan class="cls-10" x="737.5" y="56.4"> </tspan><tspan x="754.3" y="56.4">de</tspan><tspan class="cls-10" x="826.04" y="56.4"> </tspan><tspan x="842.84" y="56.4">soluciones</tspan><tspan class="cls-10" x="1114.24" y="56.4"> </tspan><tspan x="1131.04" y="56.4">inn</tspan><tspan class="cls-11" x="1204.89" y="56.4">o</tspan><tspan class="cls-12" x="1239.33" y="56.4">v</tspan><tspan x="1265.82" y="56.4">ado</tspan><tspan class="cls-7" x="1373.85" y="56.4">r</tspan><tspan x="1396.44" y="56.4">as </tspan><tspan x="0" y="112.8">basadas</tspan><tspan class="cls-13" x="229.91" y="112.8"> </tspan><tspan x="241.98" y="112.8">en</tspan><tspan class="cls-13" x="308.41" y="112.8"> </tspan><tspan x="320.48" y="112.8">in</tspan><tspan class="cls-14" x="363.47" y="112.8">t</tspan><tspan x="378.2" y="112.8">eligencia</tspan><tspan class="cls-13" x="619.44" y="112.8"> </tspan><tspan x="631.51" y="112.8">artificial</tspan><tspan class="cls-13" x="836.26" y="112.8"> </tspan><tspan x="848.33" y="112.8">y</tspan><tspan class="cls-13" x="876.28" y="112.8"> </tspan><tspan x="888.35" y="112.8">bloc</tspan><tspan class="cls-15" x="1002.18" y="112.8">k</tspan><tspan x="1030.77" y="112.8">chain.</tspan><tspan class="cls-13" x="1182.83" y="112.8"> </tspan><tspan x="1194.9" y="112.8">Mi</tspan><tspan class="cls-16" x="1250.54" y="112.8"> </tspan><tspan x="1262.61" y="112.8">t</tspan><tspan class="cls-7" x="1277.84" y="112.8">r</tspan><tspan x="1300.43" y="112.8">abajo </tspan><tspan class="cls-17" x="0" y="169.2">c</tspan><tspan x="28.64" y="169.2">onsis</tspan><tspan class="cls-14" x="156.05" y="169.2">t</tspan><tspan x="170.79" y="169.2">e</tspan><tspan class="cls-18" x="206.36" y="169.2"> </tspan><tspan x="236.38" y="169.2">en</tspan><tspan class="cls-18" x="302.81" y="169.2"> </tspan><tspan x="332.83" y="169.2">c</tspan><tspan class="cls-19" x="362.45" y="169.2">r</tspan><tspan x="385.04" y="169.2">ear</tspan><tspan class="cls-18" x="481.1" y="169.2"> </tspan><tspan x="511.12" y="169.2">algoritmos</tspan><tspan class="cls-18" x="794.58" y="169.2"> </tspan><tspan x="824.6" y="169.2">a</tspan><tspan class="cls-12" x="860.78" y="169.2">v</tspan><tspan x="887.27" y="169.2">an</tspan><tspan class="cls-9" x="954.32" y="169.2">z</tspan><tspan x="982.57" y="169.2">ados,</tspan><tspan class="cls-18" x="1127.38" y="169.2"> </tspan><tspan x="1157.4" y="169.2">desar</tspan><tspan class="cls-7" x="1314.02" y="169.2">r</tspan><tspan x="1336.61" y="169.2">ollar </tspan><tspan x="0" y="225.6">apli</tspan><tspan class="cls-17" x="97.04" y="225.6">c</tspan><tspan x="125.68" y="225.6">aciones</tspan><tspan class="cls-20" x="330.08" y="225.6"> </tspan><tspan x="346.96" y="225.6">bloc</tspan><tspan class="cls-15" x="460.79" y="225.6">k</tspan><tspan x="489.38" y="225.6">chain</tspan><tspan class="cls-21" x="629.03" y="225.6"> </tspan><tspan x="645.92" y="225.6">y</tspan><tspan class="cls-20" x="673.88" y="225.6"> </tspan><tspan class="cls-17" x="690.76" y="225.6">c</tspan><tspan x="719.4" y="225.6">olabo</tspan><tspan class="cls-7" x="875.46" y="225.6">r</tspan><tspan x="898.05" y="225.6">ar</tspan><tspan class="cls-21" x="958.54" y="225.6"> </tspan><tspan x="975.43" y="225.6">en</tspan><tspan class="cls-20" x="1041.86" y="225.6"> </tspan><tspan x="1058.75" y="225.6">in</tspan><tspan class="cls-12" x="1101.74" y="225.6">v</tspan><tspan x="1128.22" y="225.6">estigaciones </tspan><tspan x="0" y="282">pa</tspan><tspan class="cls-7" x="72.8" y="282">r</tspan><tspan x="95.4" y="282">a mejo</tspan><tspan class="cls-7" x="280.36" y="282">r</tspan><tspan x="302.95" y="282">ar el e</tspan><tspan class="cls-17" x="476.12" y="282">c</tspan><tspan x="504.76" y="282">osis</tspan><tspan class="cls-8" x="601.3" y="282">t</tspan><tspan x="616.04" y="282">ema de las cri</tspan><tspan class="cls-7" x="993.12" y="282">p</tspan><tspan class="cls-14" x="1028.02" y="282">t</tspan><tspan x="1042.76" y="282">omonedas.</tspan></text></svg>